<svg width="27" height="26" viewBox="0 0 27 26" fill="none" xmlns="http://www.w3.org/2000/svg">
<path d="M10.2958 22.7686V22.7686C10.2958 23.4883 9.71238 24.0717 8.99264 24.0717C8.27292 24.0717 7.68949 23.4883 7.68949 22.7686C7.68949 22.0489 8.27292 21.4654 8.99264 21.4654C9.71237 21.4654 10.2958 22.0489 10.2958 22.7686ZM8.99264 20.0028C7.46516 20.0028 6.22695 21.2411 6.22695 22.7685C6.22695 24.296 7.46522 25.5342 8.99264 25.5342C10.5201 25.5342 11.7583 24.2959 11.7583 22.7685C11.7584 21.2411 10.5201 20.0028 8.99264 20.0028Z" fill="#293895" stroke="#293895" stroke-width="0.3"/>
<path d="M21.3397 22.7686V22.7686C21.3398 23.4883 20.7563 24.0717 20.0366 24.0717C19.3169 24.0717 18.7334 23.4883 18.7334 22.7686C18.7334 22.0489 19.3169 21.4654 20.0366 21.4654C20.7563 21.4654 21.3397 22.0489 21.3397 22.7686ZM20.0366 20.0028C18.5091 20.0028 17.2709 21.2411 17.2709 22.7685C17.2709 24.296 18.5092 25.5342 20.0366 25.5342C21.564 25.5342 22.8023 24.2959 22.8023 22.7685C22.8023 21.2411 21.5641 20.0028 20.0366 20.0028Z" fill="#293895" stroke="#293895" stroke-width="0.3"/>
<path d="M26.0505 4.79707L26.0506 4.79702L26.0471 4.79327C25.9011 4.63374 25.7013 4.53388 25.4861 4.51274L25.4862 4.51221L25.4735 4.51203L6.66037 4.25195L6.17057 2.75529L6.17058 2.75528L6.16981 2.75304C5.78059 1.62451 4.72379 0.86264 3.53011 0.850008L3.53011 0.85H3.52852H1.58127C1.17739 0.85 0.85 1.17739 0.85 1.58127C0.85 1.98515 1.17739 2.31254 1.58127 2.31254H3.52682C4.09512 2.32577 4.5954 2.69073 4.78152 3.22791C4.78163 3.2282 4.78173 3.2285 4.78183 3.22879L8.45424 14.3039L8.18649 14.9197L8.18638 14.9197L8.1842 14.9253C7.84262 15.8061 7.9452 16.7975 8.45983 17.5898L8.46014 17.5902C8.97068 18.3696 9.82959 18.8506 10.7609 18.8787L10.7609 18.8787H10.7654H22.0711C22.475 18.8787 22.8024 18.5513 22.8024 18.1474C22.8024 17.7436 22.475 17.4162 22.0711 17.4162H10.7672C10.3201 17.4044 9.90868 17.1689 9.67195 16.7893L9.67192 16.7892C9.43648 16.4121 9.38742 15.9477 9.53856 15.5297L9.73374 15.0906L21.8832 13.8208L21.8841 13.8207C23.291 13.6658 24.4484 12.6425 24.7746 11.2651C24.7746 11.265 24.7746 11.2649 24.7747 11.2648L26.1676 5.43179C26.245 5.21483 26.2006 4.97261 26.0505 4.79707ZM23.3494 10.9334L23.3494 10.9334L23.3488 10.9362C23.1744 11.7189 22.5099 12.2962 21.7105 12.3596L21.7105 12.3596L21.7069 12.3599L9.73655 13.5972L7.13741 5.71607L24.5548 5.97179L23.3494 10.9334Z" fill="#293895" stroke="#293895" stroke-width="0.3"/>
</svg>
