<svg width="15" height="11" viewBox="0 0 15 11" fill="none" xmlns="http://www.w3.org/2000/svg">
<path d="M12.1199 4.69039C11.9664 4.69039 11.8157 4.70264 11.6685 4.72587L10.5916 0.665161C10.5575 0.536758 10.4412 0.447266 10.3084 0.447266H8.09086C7.92904 0.447266 7.79789 0.578415 7.79789 0.740234C7.79789 0.902054 7.92904 1.0332 8.09086 1.0332H10.083L10.2784 1.76986C9.01142 1.8193 7.90409 2.21423 6.97655 2.73975C6.1401 3.2077 5.42656 3.79569 4.83627 4.39227V2.21137C4.83627 2.04967 4.70501 1.9184 4.5433 1.9184H2.51049C2.34879 1.9184 2.21752 2.04967 2.21752 2.21137C2.21752 2.37319 2.34879 2.50434 2.51049 2.50434H4.25034V5.0304C4.24942 5.03143 4.2485 5.03246 4.24759 5.0336C3.83835 4.81353 3.37177 4.69039 2.88013 4.69039C1.29204 4.69039 0 5.98243 0 7.57053C0 9.15862 1.29204 10.4507 2.88013 10.4507C4.12033 10.4507 5.21564 9.6553 5.60806 8.49464H7.98592C8.48648 8.49464 8.89366 8.08746 8.89366 7.58678C8.89366 7.19138 8.63949 6.85447 8.28598 6.73019C8.62999 6.1621 9.04942 5.48381 9.40693 4.94754C9.87019 4.25266 10.4998 3.98257 10.8388 3.88267L11.1023 4.87636C10.015 5.28835 9.23985 6.34052 9.23985 7.57053C9.23985 9.15862 10.5319 10.4507 12.12 10.4507C13.7081 10.4507 15 9.15862 15 7.57053C15 5.98243 13.708 4.69039 12.1199 4.69039ZM7.16206 3.30966C7.94231 2.85819 8.83781 2.51865 9.84684 2.39906C8.9637 3.52573 7.1022 3.96507 5.99865 4.13078C6.34209 3.84479 6.73107 3.56258 7.16206 3.30966ZM2.88013 9.86472C1.6151 9.86472 0.585938 8.83556 0.585938 7.57053C0.585938 6.3055 1.6151 5.27633 2.88013 5.27633C3.8578 5.27633 4.71165 5.88618 5.03677 6.78661C4.75159 6.93984 4.55715 7.24105 4.55715 7.58678C4.55715 7.9285 4.74689 8.2265 5.02659 8.38145C4.69322 9.26505 3.84132 9.86472 2.88013 9.86472ZM7.9858 7.9087H5.46501C5.28751 7.9087 5.14309 7.76427 5.14309 7.58678C5.14309 7.40939 5.28751 7.26497 5.46501 7.26497H7.9858C8.1633 7.26497 8.30772 7.40939 8.30772 7.58678C8.30772 7.76427 8.1633 7.9087 7.9858 7.9087ZM8.91941 4.62253C8.71857 4.92374 8.49907 5.2682 8.28415 5.61301H7.00195C6.84013 5.61301 6.70898 5.74428 6.70898 5.90598C6.70898 6.0678 6.84013 6.19895 7.00195 6.19895H7.9232C7.82066 6.36707 7.7227 6.52911 7.63252 6.67903H5.61916C5.44956 6.15443 5.13897 5.70377 4.73557 5.36468C4.89487 5.17986 5.06699 4.99229 5.25181 4.80552C5.90687 4.76054 9.23355 4.43462 10.4673 2.53684L10.6793 3.31996C10.2481 3.44711 9.48029 3.78104 8.91941 4.62253ZM12.1199 9.86472C10.8548 9.86472 9.82567 8.83556 9.82567 7.57053C9.82567 6.61197 10.4169 5.78937 11.2535 5.44673L11.5364 6.51378C11.1647 6.71977 10.9124 7.1162 10.9124 7.57053C10.9124 8.23634 11.454 8.77799 12.1199 8.77799C12.7857 8.77799 13.3273 8.23634 13.3273 7.57053C13.3273 6.90471 12.7857 6.36306 12.1199 6.36306C12.1141 6.36306 12.1085 6.3634 12.1028 6.3634L11.8199 5.29659C11.9181 5.28377 12.0181 5.27633 12.1199 5.27633C13.3849 5.27633 14.4141 6.3055 14.4141 7.57053C14.4141 8.83556 13.3849 9.86472 12.1199 9.86472ZM12.1199 6.949C12.4626 6.949 12.7414 7.22778 12.7414 7.57053C12.7414 7.91328 12.4626 8.19205 12.1199 8.19205C11.7771 8.19205 11.4983 7.91328 11.4983 7.57053C11.4983 7.22778 11.7771 6.949 12.1199 6.949Z" fill="#62D33E"/>
</svg>
