<svg width="15" height="7" viewBox="0 0 15 7" fill="none" xmlns="http://www.w3.org/2000/svg">
<path d="M14.7803 2.44381C14.6589 2.44381 14.5605 2.54219 14.5605 2.66354V3.30713C14.5605 3.3475 14.5277 3.38037 14.4873 3.38037H13.9014C13.2148 3.38037 12.6562 3.93892 12.6562 4.62549C12.6562 4.74666 12.5577 4.84521 12.4365 4.84521H10.5265C10.33 4.84521 10.1378 4.80821 9.95528 4.7352L9.0143 4.3588C8.84918 4.29276 8.6753 4.25928 8.49747 4.25928H7.70508V3.52686H9.5211L9.88019 3.95775C10.1174 4.24249 10.4661 4.40576 10.8367 4.40576H11.4929C11.7139 4.40576 11.9094 4.26487 11.9793 4.0552L12.077 3.76226C12.1289 3.60637 12.1026 3.43369 12.0065 3.30036C11.9104 3.16703 11.755 3.0874 11.5906 3.0874C10.6126 3.0874 8.67776 3.0874 7.70508 3.0874V2.64795H9.82192C9.9433 2.64795 10.0417 2.54957 10.0417 2.42822C10.0417 2.30687 9.9433 2.2085 9.82192 2.2085H9.19922V2.01807C9.19922 1.88075 9.31093 1.76904 9.44824 1.76904H11.2354C11.3727 1.76904 11.4844 1.88075 11.4844 2.01807V2.2085H10.8479C10.7266 2.2085 10.6282 2.30687 10.6282 2.42822C10.6282 2.54957 10.7266 2.64795 10.8479 2.64795H12.4365C12.6385 2.64795 12.8027 2.48368 12.8027 2.28174V1.76904C12.8027 1.28441 13.197 0.890137 13.6816 0.890137C14.1307 0.890137 14.5063 1.22614 14.5552 1.67172C14.5685 1.79233 14.6771 1.87958 14.7976 1.86613C14.9183 1.85289 15.0053 1.74435 14.9921 1.62373C14.9186 0.954971 14.3552 0.450684 13.6816 0.450684C12.9547 0.450684 12.3633 1.0421 12.3633 1.76904V2.2085H11.9238V2.01807C11.9238 1.63844 11.615 1.32959 11.2354 1.32959H9.44824C9.06861 1.32959 8.75977 1.63844 8.75977 2.01807V2.2085H6.24023V2.01807C6.24023 1.63844 5.93139 1.32959 5.55176 1.32959H3.76465C3.38502 1.32959 3.07617 1.63844 3.07617 2.01807V2.2085H2.63672V1.76904C2.63672 1.0421 2.0453 0.450684 1.31836 0.450684C0.591416 0.450684 0 1.0421 0 1.76904V3.30713C0 3.51112 0.120059 3.68717 0.292969 3.76964V5.57764C0.292969 6.14304 0.752959 6.60303 1.31836 6.60303C1.88376 6.60303 2.34375 6.14304 2.34375 5.57764V5.24687C2.41251 5.27128 2.48645 5.28467 2.56348 5.28467H3.35915C3.48053 5.28467 3.57888 5.18629 3.57888 5.06494C3.57888 4.94359 3.48053 4.84521 3.35915 4.84521H2.56348C2.4423 4.84521 2.34375 4.74666 2.34375 4.62549C2.34375 3.93892 1.78521 3.38037 1.09863 3.38037H0.512695C0.472295 3.38037 0.439453 3.3475 0.439453 3.30713V1.76904C0.439453 1.28441 0.83373 0.890137 1.31836 0.890137C1.80299 0.890137 2.19727 1.28441 2.19727 1.76904V2.28174C2.19727 2.48368 2.36153 2.64795 2.56348 2.64795H7.26562V3.0874C6.29607 3.0874 4.37505 3.0874 3.40939 3.0874C3.24504 3.0874 3.08956 3.167 2.99347 3.30036C2.8974 3.43369 2.87104 3.60637 2.92304 3.76223L3.02068 4.0552C3.09059 4.26487 3.28608 4.40576 3.5071 4.40576H4.16329C4.53393 4.40576 4.88259 4.24246 5.1198 3.95775L5.4789 3.52686H7.26562V4.25928H6.50253C6.32473 4.25928 6.15082 4.29276 5.9857 4.3588L5.04472 4.7352C4.8682 4.80865 4.60603 4.85418 4.38018 4.84521C4.2588 4.84521 4.16045 4.94359 4.16045 5.06494C4.16045 5.18629 4.2588 5.28467 4.38018 5.28467C4.62853 5.29442 4.94927 5.24831 5.2079 5.14322L6.14889 4.76685C6.26186 4.72167 6.38086 4.69873 6.5025 4.69873H8.49744C8.61908 4.69873 8.73809 4.72164 8.85105 4.76682L9.79204 5.14322C10.0267 5.23709 10.2737 5.28467 10.5265 5.28467H12.4365C12.5135 5.28467 12.5875 5.27125 12.6562 5.24687V5.57764C12.6562 6.14304 13.1162 6.60303 13.6816 6.60303C14.247 6.60303 14.707 6.14304 14.707 5.57764V3.76964C14.8799 3.68714 15 3.51112 15 3.30713V2.66354C15 2.54219 14.9017 2.44381 14.7803 2.44381ZM11.5906 3.52686C11.6232 3.52686 11.6418 3.5459 11.65 3.55729C11.6582 3.56863 11.6704 3.5923 11.6601 3.62327L11.5624 3.91624C11.5524 3.94621 11.5245 3.96634 11.4929 3.96634H10.8367C10.5969 3.96634 10.3713 3.86069 10.2178 3.67645L10.0932 3.52686H11.5906ZM1.9043 4.62549C1.90427 4.67916 1.90433 5.53003 1.9043 5.57764C1.9043 5.90072 1.64145 6.16357 1.31836 6.16357C0.995273 6.16357 0.732422 5.90072 0.732422 5.57764V3.81982H1.09863C1.54286 3.81982 1.9043 4.18123 1.9043 4.62549ZM3.51562 2.01807C3.51562 1.88075 3.62733 1.76904 3.76465 1.76904H5.55176C5.68907 1.76904 5.80078 1.88075 5.80078 2.01807V2.2085H3.51562V2.01807ZM4.78219 3.67642C4.62867 3.86066 4.40309 3.96631 4.16326 3.96631H3.50707C3.47549 3.96631 3.44757 3.94618 3.43758 3.91624L3.33993 3.62324C3.32959 3.5923 3.34178 3.56863 3.34998 3.55729C3.35815 3.54593 3.37679 3.52686 3.40939 3.52686H4.90682L4.78219 3.67642ZM13.6816 6.16357C13.3586 6.16357 13.0957 5.90072 13.0957 5.57764C13.0957 5.54603 13.0957 4.66513 13.0957 4.62549C13.0957 4.18123 13.4571 3.81982 13.9014 3.81982H14.2676V5.57764C14.2676 5.90072 14.0047 6.16357 13.6816 6.16357Z" fill="#62D33E"/>
</svg>
