<svg width="8" height="9" viewBox="0 0 8 9" fill="none" xmlns="http://www.w3.org/2000/svg">
<path d="M3.98047 0.813965C1.8788 0.813965 0.171875 2.52071 0.171875 4.62256C0.171875 6.74928 1.90505 8.43115 3.98047 8.43115C6.08252 8.43115 7.78906 6.72288 7.78906 4.62256C7.78906 2.52042 6.0807 0.813965 3.98047 0.813965ZM7.1898 4.32959H5.41596C5.37869 4.14563 5.30642 3.97144 5.20238 3.81496L6.45576 2.56158C6.87702 3.06525 7.13111 3.67732 7.1898 4.32959ZM4.27344 1.41323C4.9257 1.47191 5.53777 1.72601 6.04145 2.14724L4.78807 3.40064C4.63156 3.29661 4.45736 3.22434 4.27344 3.18707V1.41323ZM3.6875 1.41326V3.18707C3.50357 3.22434 3.32938 3.29661 3.17287 3.40064L1.91946 2.14727C2.42316 1.72604 3.03523 1.47194 3.6875 1.41326ZM1.50515 2.56155L2.75855 3.81493C2.65452 3.97144 2.58225 4.14563 2.54498 4.32959H0.771143C0.829824 3.67732 1.08392 3.06525 1.50515 2.56155ZM0.771143 4.91553H2.54498C2.58225 5.09948 2.65452 5.27368 2.75855 5.43019L1.50515 6.68356C1.08392 6.17986 0.829824 5.56779 0.771143 4.91553ZM3.6875 7.83189C3.03523 7.7732 2.42316 7.51911 1.91946 7.09788L3.17287 5.84447C3.32938 5.94851 3.50357 6.02078 3.6875 6.05805V7.83189ZM3.10156 4.62256C3.10156 4.1379 3.49578 3.74365 3.98047 3.74365C4.4651 3.74365 4.85938 4.13784 4.85938 4.62256C4.85938 5.10719 4.46516 5.50146 3.98047 5.50146C3.49584 5.50146 3.10156 5.10728 3.10156 4.62256ZM4.27347 7.83189V6.05805H4.27344C4.45736 6.02078 4.63156 5.94851 4.78807 5.84447L6.04147 7.09788C5.5378 7.51911 4.92573 7.7732 4.27347 7.83189ZM6.45579 6.68354L5.20238 5.43016C5.30642 5.27368 5.37869 5.09948 5.41596 4.91553H7.1898C7.13111 5.56779 6.87702 6.17986 6.45579 6.68354Z" fill="#62D33E"/>
</svg>
