<svg width="13" height="13" viewBox="0 0 13 13" fill="none" xmlns="http://www.w3.org/2000/svg">
<path d="M12.7396 7.27297C12.8951 7.22511 13 7.09077 13 6.93945V4.5957C13 4.40155 12.8295 4.24414 12.6191 4.24414H11.4766V3.42383C11.4766 2.5838 10.7362 1.90039 9.82617 1.90039H8.81055C8.60021 1.90039 8.42969 2.0578 8.42969 2.25195C8.42969 2.44611 8.60021 2.60352 8.81055 2.60352H9.82617C10.3162 2.60352 10.7148 2.97151 10.7148 3.42383V7.54503C9.68756 7.65034 8.79585 8.17627 8.24703 8.93164H5.83984V8.3457C5.83984 7.80376 5.3947 7.3562 4.82422 7.29767V6.30664H5.9668C6.17713 6.30664 6.34766 6.14923 6.34766 5.95508V5.25195C6.34766 4.6704 5.8351 4.19727 5.20508 4.19727H3.30078V3.02539H5.45898C5.66932 3.02539 5.83984 2.86798 5.83984 2.67383C5.83984 2.47967 5.66932 2.32227 5.45898 2.32227H3.30078V1.50195C3.30078 0.920398 2.78822 0.447266 2.1582 0.447266C1.52819 0.447266 1.01562 0.920398 1.01562 1.50195V5.01758C1.01562 5.72837 1.64209 6.30664 2.41211 6.30664H2.53906V7.29767C1.96859 7.3562 1.52344 7.80376 1.52344 8.3457V8.96701C0.655281 9.13034 0 9.84055 0 10.6895C0 11.6587 0.854268 12.4473 1.9043 12.4473C2.82392 12.4473 3.59333 11.8424 3.77028 11.041H9.22972C9.40664 11.8424 10.1761 12.4473 11.0957 12.4473C12.1457 12.4473 13 11.6587 13 10.6895C13 9.84055 12.3447 9.13034 11.4766 8.96701V7.66159L12.7396 7.27297ZM11.4766 4.94727H12.2383V6.68605L11.4766 6.92042V4.94727ZM2.41211 5.60352C2.0621 5.60352 1.77734 5.34066 1.77734 5.01758V1.50195C1.77734 1.3081 1.9482 1.15039 2.1582 1.15039C2.36821 1.15039 2.53906 1.3081 2.53906 1.50195V4.54883C2.53906 4.74298 2.70959 4.90039 2.91992 4.90039H5.20508C5.41508 4.90039 5.58594 5.0581 5.58594 5.25195V5.60352H2.41211ZM4.0625 6.30664V7.29102H3.30078V6.30664H4.0625ZM1.9043 11.7441C1.27428 11.7441 0.761719 11.271 0.761719 10.6895C0.761719 10.1079 1.27428 9.63477 1.9043 9.63477C2.53431 9.63477 3.04688 10.1079 3.04688 10.6895C3.04688 11.271 2.53431 11.7441 1.9043 11.7441ZM2.28516 8.93164V8.3457C2.28516 8.15185 2.45601 7.99414 2.66602 7.99414H4.69727C4.90727 7.99414 5.07812 8.15185 5.07812 8.3457V8.93164H2.28516ZM7.68925 10.3379H3.77028C3.71295 10.0782 3.59338 9.83926 3.42669 9.63477H7.86403C7.77799 9.85871 7.71857 10.0942 7.68925 10.3379ZM9.22972 10.3379H8.45701C8.62451 9.26173 9.54901 8.40835 10.7148 8.25373V8.96701C9.96978 9.10719 9.38158 9.65014 9.22972 10.3379ZM12.2383 10.6895C12.2383 11.271 11.7257 11.7441 11.0957 11.7441C10.4657 11.7441 9.95312 11.271 9.95312 10.6895C9.95312 10.1079 10.4657 9.63477 11.0957 9.63477C11.7257 9.63477 12.2383 10.1079 12.2383 10.6895Z" fill="#62D33E"/>
</svg>
