<svg width="10" height="16" viewBox="0 0 10 16" fill="none" xmlns="http://www.w3.org/2000/svg">
<path d="M8.35774 0.603027C8.17599 0.603027 8.007 0.65875 7.86693 0.753936C7.85706 0.751563 7.84698 0.7496 7.83658 0.748604L6.57544 0.627402C6.45178 0.615566 6.328 0.656641 6.23598 0.740254C6.14395 0.823838 6.09122 0.943047 6.09122 1.06735V1.74229L5.02332 6.26359H4.68081C4.25779 6.26359 3.89445 6.55111 3.79725 6.96279L3.16098 9.65664C2.42899 9.67431 1.72045 9.93909 1.15807 10.4082C1.06487 10.4859 1.05233 10.6245 1.13006 10.7177C1.20775 10.8109 1.34633 10.8234 1.43952 10.7457C1.94305 10.3257 2.58207 10.0944 3.23891 10.0944C3.9459 10.0944 4.62157 10.3578 5.14147 10.8361C5.59856 11.2565 5.90076 11.81 6.00749 12.4143H0.470381C0.543711 12.0003 0.709678 11.6066 0.956826 11.2637C1.02778 11.1653 1.00552 11.0279 0.90708 10.957C0.808672 10.886 0.671328 10.9083 0.600342 11.0067C0.259854 11.4791 0.0525782 12.035 0.000869258 12.6145C-0.00460926 12.6759 0.0159866 12.7369 0.0576174 12.7823C0.0992483 12.8278 0.158076 12.8537 0.219746 12.8537H0.543418C0.543067 12.8714 0.542598 12.8891 0.542598 12.9067C0.542598 14.3935 1.75218 15.6031 3.23894 15.6031C4.02342 15.6031 4.76762 15.2622 5.28063 14.6679C5.35994 14.5761 5.34975 14.4373 5.25793 14.358C5.16602 14.2787 5.0273 14.2889 4.94803 14.3808C4.51851 14.8782 3.89557 15.1636 3.23894 15.1636C1.99449 15.1636 0.982051 14.1511 0.982051 12.9067C0.982051 12.889 0.982461 12.8714 0.982871 12.8537H1.66572C1.66563 12.8602 1.66528 12.8667 1.66528 12.8732C1.66528 13.7409 2.37122 14.4468 3.23894 14.4468C4.10665 14.4468 4.81262 13.7409 4.81262 12.8732C4.81262 12.8667 4.81221 12.8602 4.81212 12.8537H5.49491C5.49532 12.8714 5.49582 12.889 5.49582 12.9067C5.49582 13.225 5.43093 13.5326 5.30299 13.821C5.25377 13.932 5.30378 14.0618 5.41473 14.111C5.4437 14.1239 5.47394 14.1299 5.50373 14.1299C5.58796 14.1299 5.66832 14.0812 5.70468 13.9993C5.8577 13.6544 5.93527 13.2868 5.93527 12.9067C5.93527 12.889 5.93472 12.8714 5.93436 12.8537H6.25809C6.31974 12.8537 6.37859 12.8278 6.42022 12.7823C6.46185 12.7368 6.48242 12.6759 6.47694 12.6145C6.41662 11.9381 6.14715 11.3037 5.70887 10.7922C5.71247 10.7818 5.71549 10.771 5.71754 10.7598L7.31501 1.9876H7.64633C7.80532 2.20914 8.06489 2.35387 8.35777 2.35387C8.8405 2.35387 9.23319 1.96117 9.23319 1.47845C9.23316 0.995723 8.84047 0.603027 8.35774 0.603027V0.603027ZM4.37316 12.8732C4.37316 13.4986 3.86436 14.0074 3.23894 14.0074C2.61353 14.0074 2.10474 13.4986 2.10474 12.8732C2.10474 12.8667 2.10506 12.8602 2.10518 12.8537H4.37267C4.37275 12.8602 4.37316 12.8667 4.37316 12.8732ZM4.22492 7.06384C4.27511 6.85144 4.46255 6.70308 4.68084 6.70308H4.91955L4.18892 9.79639C4.00021 9.73882 3.80586 9.69836 3.60796 9.67589L4.22492 7.06384ZM5.3329 10.4193C5.1096 10.231 4.86409 10.0753 4.60309 9.9545L6.48482 1.98757H6.86832L5.3329 10.4193ZM7.13167 1.54814H6.53067V1.06738L6.53343 1.06489L7.54185 1.16181C7.50359 1.26007 7.48235 1.3668 7.48235 1.47848C7.48235 1.50197 7.48355 1.52515 7.48537 1.54817H7.13167V1.54814ZM8.35774 1.91441C8.11736 1.91441 7.92178 1.71886 7.92178 1.47845C7.92178 1.23804 8.11736 1.04248 8.35774 1.04248C8.59812 1.04248 8.79371 1.23804 8.79371 1.47845C8.79371 1.71883 8.59812 1.91441 8.35774 1.91441Z" fill="#62D33E"/>
</svg>
