<svg width="15" height="13" viewBox="0 0 15 13" fill="none" xmlns="http://www.w3.org/2000/svg">
<path d="M14.952 10.1859C14.7577 9.34444 14.0281 8.79126 13.2362 8.75704L11.7845 1.4316H12.1869C12.4296 1.4316 12.6263 1.23485 12.6263 0.992166C12.6263 0.749483 12.4296 0.552734 12.1869 0.552734C11.5292 0.552734 10.9722 0.552734 10.312 0.552734C10.0693 0.552734 9.87256 0.749483 9.87256 0.992166C9.87256 1.23485 10.0693 1.4316 10.312 1.4316H10.8886L11.8787 6.42779L10.5994 8.52109H9.55031C8.82341 8.52109 8.23202 9.11248 8.23202 9.83939V10.1616H3.69999C3.64977 9.78159 3.49893 9.2388 3.06823 8.76609C2.49503 8.13697 1.61058 7.818 0.439432 7.818C0.196748 7.818 0 8.01475 0 8.25744C0 8.50012 0.196748 8.69687 0.439432 8.69687C0.813359 8.69687 1.14513 8.73478 1.43483 8.80889C0.629003 9.00681 0.0292954 9.73504 0.0292954 10.6011C0.0292954 11.6187 0.857243 12.4467 1.87491 12.4467C2.74115 12.4467 3.46955 11.8467 3.66723 11.0405H4.9137L4.52858 11.8107C4.3814 12.1051 4.59848 12.4468 4.92128 12.4468C5.08247 12.4468 5.23767 12.3577 5.31466 12.2038L5.89629 11.0405H9.84327C9.99637 11.0405 10.1384 10.9608 10.2182 10.8302L12.1309 7.70044L12.3741 8.92792C11.6061 9.28389 11.1538 10.1435 11.3554 11.0162C11.556 11.8853 12.3282 12.4474 13.1501 12.4474C14.3435 12.4474 15.2184 11.3397 14.952 10.1859ZM1.87491 11.5678C1.34185 11.5678 0.908159 11.1341 0.908159 10.6011C0.908159 10.068 1.34185 9.63432 1.87491 9.63432C2.24977 9.63432 2.57527 9.84894 2.73558 10.1616H1.87491C1.63222 10.1616 1.43548 10.3584 1.43548 10.6011C1.43548 10.8438 1.63222 11.0405 1.87491 11.0405H2.73558C2.57527 11.3532 2.24977 11.5678 1.87491 11.5678ZM9.59684 10.1616H9.11088V9.83939C9.11088 9.59709 9.30801 9.39996 9.55031 9.39996H10.0623L9.59684 10.1616ZM13.9735 11.1134C13.6904 11.5664 13.0947 11.7042 12.6413 11.4209C12.0722 11.0653 12.0316 10.2542 12.5551 9.84126L12.7226 10.6865C12.7698 10.9246 13.0011 11.0793 13.2391 11.0321C13.4771 10.985 13.6319 10.7537 13.5847 10.5156L13.4172 9.67056C13.7415 9.7629 14.0125 10.0235 14.0956 10.3836V10.3836C14.1537 10.6352 14.1103 10.8943 13.9735 11.1134Z" fill="#62D33E"/>
</svg>
