<svg width="15" height="11" viewBox="0 0 15 11" fill="none" xmlns="http://www.w3.org/2000/svg">
<path d="M12.1199 4.24313C11.9664 4.24313 11.8157 4.25537 11.6685 4.2786L10.5916 0.217896C10.5575 0.0894928 10.4412 0 10.3084 0H8.09086C7.92904 0 7.79789 0.131149 7.79789 0.292969C7.79789 0.454788 7.92904 0.585938 8.09086 0.585938H10.083L10.2784 1.32259C9.01142 1.37203 7.90409 1.76697 6.97655 2.29248C6.1401 2.76043 5.42656 3.34843 4.83627 3.94501V1.76411C4.83627 1.6024 4.70501 1.47114 4.5433 1.47114H2.51049C2.34879 1.47114 2.21752 1.6024 2.21752 1.76411C2.21752 1.92593 2.34879 2.05708 2.51049 2.05708H4.25034V4.58313C4.24942 4.58416 4.2485 4.58519 4.24759 4.58633C3.83835 4.36626 3.37177 4.24313 2.88013 4.24313C1.29204 4.24313 0 5.53516 0 7.12326C0 8.71136 1.29204 10.0034 2.88013 10.0034C4.12033 10.0034 5.21564 9.20803 5.60806 8.04737H7.98592C8.48648 8.04737 8.89366 7.64019 8.89366 7.13951C8.89366 6.74412 8.63949 6.4072 8.28598 6.28292C8.62999 5.71484 9.04942 5.03654 9.40693 4.50027C9.87019 3.80539 10.4998 3.53531 10.8388 3.4354L11.1023 4.42909C10.015 4.84108 9.23985 5.89325 9.23985 7.12326C9.23985 8.71136 10.5319 10.0034 12.12 10.0034C13.7081 10.0034 15 8.71136 15 7.12326C15 5.53516 13.708 4.24313 12.1199 4.24313ZM7.16206 2.8624C7.94231 2.41093 8.83781 2.07138 9.84684 1.95179C8.9637 3.07846 7.1022 3.5178 5.99865 3.68351C6.34209 3.39752 6.73107 3.11531 7.16206 2.8624ZM2.88013 9.41746C1.6151 9.41746 0.585938 8.38829 0.585938 7.12326C0.585938 5.85823 1.6151 4.82906 2.88013 4.82906C3.8578 4.82906 4.71165 5.43892 5.03677 6.33934C4.75159 6.49258 4.55715 6.79379 4.55715 7.13951C4.55715 7.48123 4.74689 7.77924 5.02659 7.93419C4.69322 8.81779 3.84132 9.41746 2.88013 9.41746ZM7.9858 7.46143H5.46501C5.28751 7.46143 5.14309 7.31701 5.14309 7.13951C5.14309 6.96213 5.28751 6.8177 5.46501 6.8177H7.9858C8.1633 6.8177 8.30772 6.96213 8.30772 7.13951C8.30772 7.31701 8.1633 7.46143 7.9858 7.46143ZM8.91941 4.17526C8.71857 4.47647 8.49907 4.82094 8.28415 5.16575H7.00195C6.84013 5.16575 6.70898 5.29701 6.70898 5.45872C6.70898 5.62054 6.84013 5.75169 7.00195 5.75169H7.9232C7.82066 5.9198 7.7227 6.08185 7.63252 6.23177H5.61916C5.44956 5.70717 5.13897 5.2565 4.73557 4.91741C4.89487 4.73259 5.06699 4.54502 5.25181 4.35825C5.90687 4.31328 9.23355 3.98735 10.4673 2.08958L10.6793 2.8727C10.2481 2.99984 9.48029 3.33378 8.91941 4.17526ZM12.1199 9.41746C10.8548 9.41746 9.82567 8.38829 9.82567 7.12326C9.82567 6.1647 10.4169 5.3421 11.2535 4.99947L11.5364 6.06651C11.1647 6.27251 10.9124 6.66893 10.9124 7.12326C10.9124 7.78908 11.454 8.33073 12.1199 8.33073C12.7857 8.33073 13.3273 7.78908 13.3273 7.12326C13.3273 6.45744 12.7857 5.91579 12.1199 5.91579C12.1141 5.91579 12.1085 5.91614 12.1028 5.91614L11.8199 4.84932C11.9181 4.8365 12.0181 4.82906 12.1199 4.82906C13.3849 4.82906 14.4141 5.85823 14.4141 7.12326C14.4141 8.38829 13.3849 9.41746 12.1199 9.41746ZM12.1199 6.50173C12.4626 6.50173 12.7414 6.78051 12.7414 7.12326C12.7414 7.46601 12.4626 7.74479 12.1199 7.74479C11.7771 7.74479 11.4983 7.46601 11.4983 7.12326C11.4983 6.78051 11.7771 6.50173 12.1199 6.50173Z" fill="#62D33E"/>
<path d="M2.88043 5.91577C2.21461 5.91577 1.67285 6.45742 1.67285 7.12324C1.67285 7.78905 2.21461 8.3307 2.88043 8.3307C3.54625 8.3307 4.0879 7.78905 4.0879 7.12324C4.0879 6.45742 3.54625 5.91577 2.88043 5.91577ZM2.88043 7.74477C2.53768 7.74477 2.25879 7.46599 2.25879 7.12324C2.25879 6.78049 2.53768 6.50171 2.88043 6.50171C3.22318 6.50171 3.50196 6.78049 3.50196 7.12324C3.50196 7.46599 3.22318 7.74477 2.88043 7.74477Z" fill="#62D33E"/>
<path d="M6.00132 5.21313L5.99273 5.21874C5.85701 5.30698 5.81856 5.48836 5.90679 5.62409C5.96286 5.71038 6.05682 5.75741 6.15272 5.75741C6.20742 5.75741 6.26281 5.74208 6.31202 5.71003L6.32072 5.70443C6.45645 5.61619 6.4949 5.43469 6.40666 5.29908C6.31855 5.16335 6.13704 5.12502 6.00132 5.21313Z" fill="#62D33E"/>
</svg>
