<svg width="10" height="15" viewBox="0 0 10 15" fill="none" xmlns="http://www.w3.org/2000/svg">
<path d="M5.18768 9.81248C5.07342 9.69792 4.88767 9.69792 4.77341 9.81248C4.65886 9.92674 4.65886 10.1125 4.77341 10.2267C4.88767 10.3413 5.07342 10.3413 5.18768 10.2267C5.30223 10.1125 5.30223 9.92674 5.18768 9.81248Z" fill="#62D33E"/>
<path d="M5.85938 5.11667V2.92969H6.73828C7.22291 2.92969 7.61719 2.53541 7.61719 2.05078C7.61719 1.56615 7.22291 1.17188 6.73828 1.17188H6.43975C5.73527 1.17188 5.18326 0.767959 4.84441 0.429287C4.56791 0.152461 4.20006 0 3.80859 0C2.9054 0 2.21695 0.807627 2.36367 1.70877C2.47696 2.4048 3.1251 2.92969 3.87129 2.92969H4.10156V5.1167C1.74577 5.53576 0 7.59908 0 10.0195C0 12.7658 2.23424 15 4.98047 15C7.7267 15 9.96094 12.7658 9.96094 10.0195C9.96094 7.59905 8.21511 5.53567 5.85938 5.11667ZM3.87129 2.34375C3.40916 2.34375 3.00964 2.0303 2.94199 1.61464C2.85064 1.05343 3.28219 0.585938 3.80859 0.585938C4.04341 0.585938 4.26404 0.677344 4.43001 0.843545C5.02846 1.44167 5.72338 1.75781 6.43975 1.75781H6.73828C6.89982 1.75781 7.03125 1.88924 7.03125 2.05078C7.03125 2.21232 6.89982 2.34375 6.73828 2.34375H3.87129ZM5.27344 2.92969V5.04794C5.07867 5.03672 4.88221 5.03672 4.6875 5.04794V2.92969H5.27344ZM4.98047 14.4141C2.55732 14.4141 0.585938 12.4427 0.585938 10.0195C0.585938 7.5987 2.54994 5.625 4.98047 5.625C7.40561 5.625 9.375 7.59299 9.375 10.0195C9.375 12.4427 7.40361 14.4141 4.98047 14.4141Z" fill="#62D33E"/>
<path d="M4.98047 6.21094C2.8788 6.21094 1.17188 7.91769 1.17188 10.0195C1.17188 12.1463 2.90505 13.8281 4.98047 13.8281C7.08252 13.8281 8.78906 12.1199 8.78906 10.0195C8.78906 7.91739 7.0807 6.21094 4.98047 6.21094ZM8.1898 9.72656H6.41596C6.37869 9.54261 6.30642 9.36841 6.20238 9.21193L7.45576 7.95855C7.87702 8.46223 8.13111 9.0743 8.1898 9.72656ZM5.27344 6.81021C5.9257 6.86889 6.53777 7.12298 7.04145 7.54421L5.78807 8.79762C5.63156 8.69358 5.45736 8.62131 5.27344 8.58404V6.81021ZM4.6875 6.81023V8.58404C4.50357 8.62131 4.32938 8.69358 4.17287 8.79762L2.91946 7.54424C3.42316 7.12301 4.03523 6.86892 4.6875 6.81023ZM2.50515 7.95853L3.75855 9.2119C3.65452 9.36841 3.58225 9.54261 3.54498 9.72656H1.77114C1.82982 9.0743 2.08392 8.46223 2.50515 7.95853ZM1.77114 10.3125H3.54498C3.58225 10.4965 3.65452 10.6707 3.75855 10.8272L2.50515 12.0805C2.08392 11.5768 1.82982 10.9648 1.77114 10.3125ZM4.6875 13.2289C4.03523 13.1702 3.42316 12.9161 2.91946 12.4949L4.17287 11.2414C4.32938 11.3455 4.50357 11.4178 4.6875 11.455V13.2289ZM4.10156 10.0195C4.10156 9.53487 4.49578 9.14062 4.98047 9.14062C5.4651 9.14062 5.85938 9.53481 5.85938 10.0195C5.85938 10.5042 5.46516 10.8984 4.98047 10.8984C4.49584 10.8984 4.10156 10.5042 4.10156 10.0195ZM5.27347 13.2289V11.455H5.27344C5.45736 11.4178 5.63156 11.3455 5.78807 11.2414L7.04147 12.4949C6.5378 12.9161 5.92573 13.1702 5.27347 13.2289ZM7.45579 12.0805L6.20238 10.8271C6.30642 10.6707 6.37869 10.4965 6.41596 10.3125H8.1898C8.13111 10.9648 7.87702 11.5768 7.45579 12.0805Z" fill="#62D33E"/>
</svg>
