<svg width="15" height="12" viewBox="0 0 15 12" fill="none" xmlns="http://www.w3.org/2000/svg">
<path d="M14.952 9.63316C14.7577 8.79171 14.0281 8.23852 13.2362 8.20431L11.7845 0.878863H12.1869C12.4296 0.878863 12.6263 0.682115 12.6263 0.439432C12.6263 0.196748 12.4296 0 12.1869 0C11.5292 0 10.9722 0 10.312 0C10.0693 0 9.87256 0.196748 9.87256 0.439432C9.87256 0.682115 10.0693 0.878863 10.312 0.878863H10.8886L11.8787 5.87505L10.5994 7.96836H9.55031C8.82341 7.96836 8.23202 8.55975 8.23202 9.28666V9.6089H3.69999C3.64977 9.22886 3.49893 8.68607 3.06823 8.21336C2.49503 7.58424 1.61058 7.26527 0.439432 7.26527C0.196748 7.26527 0 7.46202 0 7.7047C0 7.94738 0.196748 8.14413 0.439432 8.14413C0.813359 8.14413 1.14513 8.18204 1.43483 8.25616C0.629003 8.45408 0.0292954 9.18231 0.0292954 10.0483C0.0292954 11.066 0.857243 11.8939 1.87491 11.8939C2.74115 11.8939 3.46955 11.294 3.66723 10.4878H4.9137L4.52858 11.258C4.3814 11.5523 4.59848 11.894 4.92128 11.894C5.08247 11.894 5.23767 11.805 5.31466 11.651L5.89629 10.4878H9.84327C9.99637 10.4878 10.1384 10.4081 10.2182 10.2775L12.1309 7.14771L12.3741 8.37519C11.6061 8.73116 11.1538 9.5908 11.3554 10.4635C11.556 11.3326 12.3282 11.8946 13.1501 11.8946C14.3435 11.8946 15.2184 10.7869 14.952 9.63316ZM1.87491 11.0151C1.34185 11.0151 0.908159 10.5814 0.908159 10.0483C0.908159 9.51528 1.34185 9.08159 1.87491 9.08159C2.24977 9.08159 2.57527 9.29621 2.73558 9.6089H1.87491C1.63222 9.6089 1.43548 9.80565 1.43548 10.0483C1.43548 10.291 1.63222 10.4878 1.87491 10.4878H2.73558C2.57527 10.8004 2.24977 11.0151 1.87491 11.0151ZM9.59684 9.6089H9.11088V9.28666C9.11088 9.04435 9.30801 8.84722 9.55031 8.84722H10.0623L9.59684 9.6089ZM13.9735 10.5606C13.6904 11.0136 13.0947 11.1514 12.6413 10.8682C12.0722 10.5126 12.0316 9.70151 12.5551 9.28853L12.7226 10.1338C12.7698 10.3718 13.0011 10.5266 13.2391 10.4794C13.4771 10.4322 13.6319 10.201 13.5847 9.96291L13.4172 9.11783C13.7415 9.21017 14.0125 9.47081 14.0956 9.83085V9.83088C14.1537 10.0825 14.1103 10.3416 13.9735 10.5606Z" fill="#62D33E"/>
</svg>
