<svg width="10" height="15" viewBox="0 0 10 15" fill="none" xmlns="http://www.w3.org/2000/svg">
<path d="M8.35774 0C8.17599 0 8.007 0.0557227 7.86693 0.150908C7.85706 0.148535 7.84698 0.146572 7.83658 0.145576L6.57544 0.024375C6.45178 0.0125391 6.328 0.0536133 6.23598 0.137227C6.14395 0.220811 6.09122 0.34002 6.09122 0.464326V1.13927L5.02332 5.66057H4.68081C4.25779 5.66057 3.89445 5.94809 3.79725 6.35977L3.16098 9.05361C2.42899 9.07128 1.72045 9.33606 1.15807 9.80514C1.06487 9.88286 1.05233 10.0214 1.13006 10.1146C1.20775 10.2078 1.34633 10.2204 1.43952 10.1426C1.94305 9.72267 2.58207 9.4914 3.23891 9.4914C3.9459 9.4914 4.62157 9.75478 5.14147 10.233C5.59856 10.6535 5.90076 11.207 6.00749 11.8113H0.470381C0.543711 11.3973 0.709678 11.0035 0.956826 10.6607C1.02778 10.5623 1.00552 10.4249 0.90708 10.354C0.808672 10.283 0.671328 10.3053 0.600342 10.4037C0.259854 10.876 0.0525782 11.432 0.000869258 12.0115C-0.00460926 12.0729 0.0159866 12.1338 0.0576174 12.1793C0.0992483 12.2248 0.158076 12.2507 0.219746 12.2507H0.543418C0.543067 12.2684 0.542598 12.286 0.542598 12.3037C0.542598 13.7904 1.75218 15 3.23894 15C4.02342 15 4.76762 14.6592 5.28063 14.0649C5.35994 13.9731 5.34975 13.8343 5.25793 13.755C5.16602 13.6757 5.0273 13.6859 4.94803 13.7777C4.51851 14.2752 3.89557 14.5605 3.23894 14.5605C1.99449 14.5605 0.982051 13.5481 0.982051 12.3036C0.982051 12.286 0.982461 12.2683 0.982871 12.2507H1.66572C1.66563 12.2572 1.66528 12.2637 1.66528 12.2701C1.66528 13.1379 2.37122 13.8438 3.23894 13.8438C4.10665 13.8438 4.81262 13.1379 4.81262 12.2701C4.81262 12.2637 4.81221 12.2572 4.81212 12.2507H5.49491C5.49532 12.2683 5.49582 12.286 5.49582 12.3036C5.49582 12.622 5.43093 12.9296 5.30299 13.218C5.25377 13.3289 5.30378 13.4587 5.41473 13.508C5.4437 13.5208 5.47394 13.5269 5.50373 13.5269C5.58796 13.5269 5.66832 13.4782 5.70468 13.3962C5.8577 13.0514 5.93527 12.6838 5.93527 12.3036C5.93527 12.286 5.93472 12.2684 5.93436 12.2507H6.25809C6.31974 12.2507 6.37859 12.2248 6.42022 12.1793C6.46185 12.1338 6.48242 12.0729 6.47694 12.0114C6.41662 11.3351 6.14715 10.7006 5.70887 10.1892C5.71247 10.1787 5.71549 10.168 5.71754 10.1568L7.31501 1.38457H7.64633C7.80532 1.60611 8.06489 1.75084 8.35777 1.75084C8.8405 1.75084 9.23319 1.35814 9.23319 0.87542C9.23316 0.392695 8.84047 0 8.35774 0V0ZM4.37316 12.2701C4.37316 12.8955 3.86436 13.4043 3.23894 13.4043C2.61353 13.4043 2.10474 12.8955 2.10474 12.2701C2.10474 12.2637 2.10506 12.2572 2.10518 12.2507H4.37267C4.37275 12.2572 4.37316 12.2637 4.37316 12.2701ZM4.22492 6.46081C4.27511 6.24841 4.46255 6.10005 4.68084 6.10005H4.91955L4.18892 9.19336C4.00021 9.13579 3.80586 9.09533 3.60796 9.07286L4.22492 6.46081ZM5.3329 9.81627C5.1096 9.62795 4.86409 9.47224 4.60309 9.35147L6.48482 1.38454H6.86832L5.3329 9.81627ZM7.13167 0.945117H6.53067V0.464355L6.53343 0.461865L7.54185 0.558779C7.50359 0.657041 7.48235 0.76377 7.48235 0.875449C7.48235 0.898945 7.48355 0.922119 7.48537 0.945147H7.13167V0.945117ZM8.35774 1.31139C8.11736 1.31139 7.92178 1.11583 7.92178 0.87542C7.92178 0.63501 8.11736 0.439453 8.35774 0.439453C8.59812 0.439453 8.79371 0.63501 8.79371 0.87542C8.79371 1.1158 8.59812 1.31139 8.35774 1.31139Z" fill="#62D33E"/>
</svg>
