<svg width="13" height="12" viewBox="0 0 13 12" fill="none" xmlns="http://www.w3.org/2000/svg">
<path d="M1.9043 10.5938C2.11464 10.5938 2.28516 10.4364 2.28516 10.2422C2.28516 10.048 2.11464 9.89062 1.9043 9.89062C1.69395 9.89062 1.52344 10.048 1.52344 10.2422C1.52344 10.4364 1.69395 10.5938 1.9043 10.5938Z" fill="#62D33E"/>
<path d="M11.0957 10.5938C11.306 10.5938 11.4766 10.4364 11.4766 10.2422C11.4766 10.048 11.306 9.89062 11.0957 9.89062C10.8854 9.89062 10.7148 10.048 10.7148 10.2422C10.7148 10.4364 10.8854 10.5938 11.0957 10.5938Z" fill="#62D33E"/>
<path d="M12.7396 6.8257C12.8951 6.77784 13 6.6435 13 6.49219V4.14844C13 3.95428 12.8295 3.79688 12.6191 3.79688H11.4766V2.97656C11.4766 2.13654 10.7362 1.45312 9.82617 1.45312H8.81055C8.60021 1.45312 8.42969 1.61053 8.42969 1.80469C8.42969 1.99884 8.60021 2.15625 8.81055 2.15625H9.82617C10.3162 2.15625 10.7148 2.52424 10.7148 2.97656V7.09777C9.68756 7.20307 8.79585 7.72901 8.24703 8.48438H5.83984V7.89844C5.83984 7.35649 5.3947 6.90893 4.82422 6.85041V5.85938H5.9668C6.17713 5.85938 6.34766 5.70197 6.34766 5.50781V4.80469C6.34766 4.22313 5.8351 3.75 5.20508 3.75H3.30078V2.57812H5.45898C5.66932 2.57812 5.83984 2.42072 5.83984 2.22656C5.83984 2.03241 5.66932 1.875 5.45898 1.875H3.30078V1.05469C3.30078 0.473133 2.78822 0 2.1582 0C1.52819 0 1.01562 0.473133 1.01562 1.05469V4.57031C1.01562 5.2811 1.64209 5.85938 2.41211 5.85938H2.53906V6.85041C1.96859 6.90893 1.52344 7.35649 1.52344 7.89844V8.51974C0.655281 8.68308 0 9.39328 0 10.2422C0 11.2114 0.854268 12 1.9043 12C2.82392 12 3.59333 11.3951 3.77028 10.5938H9.22972C9.40664 11.3951 10.1761 12 11.0957 12C12.1457 12 13 11.2114 13 10.2422C13 9.39328 12.3447 8.68308 11.4766 8.51974V7.21432L12.7396 6.8257ZM11.4766 4.5H12.2383V6.23878L11.4766 6.47316V4.5ZM2.41211 5.15625C2.0621 5.15625 1.77734 4.8934 1.77734 4.57031V1.05469C1.77734 0.860836 1.9482 0.703125 2.1582 0.703125C2.36821 0.703125 2.53906 0.860836 2.53906 1.05469V4.10156C2.53906 4.29572 2.70959 4.45312 2.91992 4.45312H5.20508C5.41508 4.45312 5.58594 4.61084 5.58594 4.80469V5.15625H2.41211ZM4.0625 5.85938V6.84375H3.30078V5.85938H4.0625ZM1.9043 11.2969C1.27428 11.2969 0.761719 10.8237 0.761719 10.2422C0.761719 9.66063 1.27428 9.1875 1.9043 9.1875C2.53431 9.1875 3.04688 9.66063 3.04688 10.2422C3.04688 10.8237 2.53431 11.2969 1.9043 11.2969ZM2.28516 8.48438V7.89844C2.28516 7.70459 2.45601 7.54688 2.66602 7.54688H4.69727C4.90727 7.54688 5.07812 7.70459 5.07812 7.89844V8.48438H2.28516ZM7.68925 9.89062H3.77028C3.71295 9.63098 3.59338 9.39199 3.42669 9.1875H7.86403C7.77799 9.41145 7.71857 9.6469 7.68925 9.89062ZM9.22972 9.89062H8.45701C8.62451 8.81447 9.54901 7.96109 10.7148 7.80647V8.51974C9.96978 8.65992 9.38158 9.20288 9.22972 9.89062ZM12.2383 10.2422C12.2383 10.8237 11.7257 11.2969 11.0957 11.2969C10.4657 11.2969 9.95312 10.8237 9.95312 10.2422C9.95312 9.66063 10.4657 9.1875 11.0957 9.1875C11.7257 9.1875 12.2383 9.66063 12.2383 10.2422Z" fill="#62D33E"/>
</svg>
