<svg width="16" height="14" viewBox="0 0 16 14" fill="none" xmlns="http://www.w3.org/2000/svg">
<path fill-rule="evenodd" clip-rule="evenodd" d="M0 0.682296C0 0.305474 0.305474 0 0.682296 0H14.8042C15.181 0 15.4865 0.305474 15.4865 0.682296C15.4865 1.05912 15.181 1.36459 14.8042 1.36459H0.682296C0.305474 1.36459 0 1.05912 0 0.682296Z" fill="#828282"/>
<path fill-rule="evenodd" clip-rule="evenodd" d="M0 5.8851C0 5.50828 0.305474 5.2028 0.682296 5.2028H14.8042C15.181 5.2028 15.4865 5.50828 15.4865 5.8851C15.4865 6.26192 15.181 6.5674 14.8042 6.5674H0.682296C0.305474 6.5674 0 6.26192 0 5.8851Z" fill="#828282"/>
<path fill-rule="evenodd" clip-rule="evenodd" d="M0 11.0879C0 10.7111 0.305475 10.4056 0.682296 10.4056H7.37162C7.74845 10.4056 8.05392 10.7111 8.05392 11.0879C8.05392 11.4647 7.74845 11.7702 7.37162 11.7702H0.682296C0.305475 11.7702 0 11.4647 0 11.0879Z" fill="#828282"/>
<path fill-rule="evenodd" clip-rule="evenodd" d="M9.6626 11.0879C9.6626 10.7111 9.96807 10.4056 10.3449 10.4056H14.8044C15.1813 10.4056 15.4867 10.7111 15.4867 11.0879C15.4867 11.4647 15.1813 11.7702 14.8044 11.7702H10.3449C9.96807 11.7702 9.6626 11.4647 9.6626 11.0879Z" fill="#828282"/>
<path fill-rule="evenodd" clip-rule="evenodd" d="M12.5745 8.17587C12.9514 8.17587 13.2568 8.48135 13.2568 8.85817L13.2568 13.3177C13.2568 13.6945 12.9514 14 12.5745 14C12.1977 14 11.8922 13.6945 11.8922 13.3177L11.8922 8.85817C11.8922 8.48135 12.1977 8.17587 12.5745 8.17587Z" fill="#828282"/>
</svg>
