<svg width="19" height="16" viewBox="0 0 19 16" fill="none" xmlns="http://www.w3.org/2000/svg">
<path d="M10.5075 1.79094C10.1384 2.06594 9.80131 2.39592 9.50002 2.77592C9.19879 2.39591 8.86165 2.06593 8.49268 1.79095L8.49267 1.79095C7.68079 1.186 6.75669 0.878571 5.74908 0.878571C4.40417 0.878571 3.1646 1.39773 2.26089 2.34205L2.26088 2.34205C1.36802 3.27514 0.878571 4.5475 0.878571 5.92216C0.878571 7.3436 1.43011 8.63858 2.59404 9.99171L2.6861 9.91252L2.59404 9.99171C3.63017 11.1962 5.11621 12.4162 6.82343 13.8179L6.8288 13.8223L6.82973 13.823L6.83178 13.8248L6.83272 13.8255L10.58 1.88832M10.5075 1.79094L10.58 1.88832M10.5075 1.79094C10.5075 1.79094 10.5075 1.79094 10.5075 1.79095L10.58 1.88832M10.5075 1.79094C11.3193 1.18599 12.2434 0.878571 13.251 0.878571C14.5958 0.878571 15.8355 1.39772 16.7392 2.34205L16.6515 2.426C15.7715 1.50645 14.5639 1 13.251 1C12.2697 1 11.371 1.2989 10.58 1.88832M15.9194 3.07628C15.2301 2.35603 14.2824 1.95942 13.251 1.95942C12.4954 1.95942 11.8017 2.19084 11.1891 2.64718C10.6432 3.05404 10.2629 3.56836 10.0399 3.92823M15.9194 3.07628L7.81092 2.64718C8.35696 3.05404 8.73724 3.56836 8.96006 3.92823C9.07471 4.11329 9.27653 4.22375 9.5 4.22375C9.72347 4.22375 9.92529 4.11329 10.0399 3.92823M15.9194 3.07628C16.619 3.8074 17.0043 4.81805 17.0043 5.92216C17.0043 7.08713 16.5549 8.12902 15.5474 9.30036C14.5743 10.4316 13.1276 11.6195 11.4524 12.9951L15.9194 3.07628ZM10.0399 3.92823L10.1432 3.99218C10.3616 3.6396 10.7324 3.139 11.2616 2.74454C11.8535 2.30364 12.5219 2.08084 13.251 2.08084C14.2506 2.08084 15.1662 2.46484 15.8316 3.16023C16.5075 3.8666 16.8829 4.84621 16.8829 5.92216C16.8829 7.04973 16.4501 8.06458 15.4553 9.22118C14.4898 10.3436 13.0509 11.5253 11.3708 12.905C10.8053 13.3691 10.1669 13.8933 9.49873 14.4531C8.83435 13.8944 8.19697 13.371 7.63273 12.9077L7.63168 12.9069L7.62961 12.9052C7.62945 12.9051 7.62929 12.905 7.62912 12.9048C5.94904 11.5254 4.51022 10.3435 3.54481 9.22118L3.45275 9.30036L3.54481 9.22117C2.54986 8.06458 2.11713 7.04972 2.11713 5.92216C2.11713 4.84621 2.49246 3.8666 3.16838 3.16023C3.83395 2.46483 4.74943 2.08084 5.74908 2.08084C6.47814 2.08084 7.14652 2.30364 7.73838 2.74455C8.26777 3.13902 8.63853 3.6396 8.85682 3.99215L8.85684 3.99218C8.99434 4.21412 9.23585 4.34518 9.5 4.34518C9.76415 4.34518 10.0057 4.21412 10.1432 3.99218L10.0399 3.92823ZM16.4061 9.99159C16.4061 9.99159 16.4061 9.99158 16.4061 9.99158L16.314 9.9124L16.4061 9.99159ZM9.5 2.97469C9.5253 2.941 9.55087 2.90769 9.57671 2.87476L9.42331 2.87475C9.44914 2.90768 9.47471 2.94099 9.5 2.97469ZM8.84281 15.3335L8.7645 15.4263C8.76453 15.4263 8.76455 15.4264 8.76458 15.4264L8.84281 15.3335ZM10.1571 15.3338L10.2353 15.4266L10.2353 15.4266L10.1571 15.3338Z" fill="#828282" stroke="#828282" stroke-width="0.242857"/>
</svg>
