<svg width="22" height="22" viewBox="0 0 22 22" fill="none" xmlns="http://www.w3.org/2000/svg">
<path d="M21.9442 18.8514C21.8475 18.3867 21.3925 18.0885 20.9277 18.1852C20.4631 18.2819 20.1648 18.7371 20.2616 19.2017C20.3173 19.4693 20.2509 19.7437 20.0796 19.9545C19.9803 20.0765 19.759 20.2813 19.3921 20.2813H2.60789C2.24102 20.2813 2.01969 20.0765 1.92043 19.9545C1.74903 19.7437 1.68268 19.4693 1.73842 19.2017C2.63028 14.9179 6.40874 11.7887 10.7722 11.6831C10.8478 11.6861 10.9237 11.6875 11 11.6875C11.0766 11.6875 11.1528 11.686 11.2287 11.6831C14.3023 11.7568 17.1432 13.3136 18.8637 15.8794C19.128 16.2737 19.6618 16.3789 20.0561 16.1146C20.4503 15.8503 20.5556 15.3165 20.2912 14.9223C18.8811 12.8192 16.8335 11.29 14.4989 10.5216C15.9216 9.45468 16.8438 7.75488 16.8438 5.84376C16.8438 2.62153 14.2223 0 11 0C7.77772 0 5.15624 2.62153 5.15624 5.84376C5.15624 7.75604 6.07955 9.45675 7.50376 10.5235C6.19888 10.9531 4.97448 11.6216 3.90284 12.5031C1.93779 14.1194 0.571512 16.374 0.055757 18.8514C-0.105892 19.6277 0.0877687 20.425 0.58698 21.0389C1.08374 21.6497 1.82036 22 2.60789 22H19.3921C20.1796 22 20.9163 21.6497 21.413 21.0389C21.9123 20.425 22.1059 19.6277 21.9442 18.8514ZM6.87499 5.84376C6.87499 3.5692 8.72544 1.71875 11 1.71875C13.2746 1.71875 15.125 3.5692 15.125 5.84376C15.125 8.04827 13.3867 9.85442 11.2088 9.96352C11.1393 9.96223 11.0697 9.96159 11 9.96159C10.9306 9.96159 10.8613 9.96227 10.792 9.96356C8.61373 9.8549 6.87499 8.04857 6.87499 5.84376Z" fill="#293895"/>
</svg>
