<svg width="20" height="20" viewBox="0 0 20 20" fill="none" xmlns="http://www.w3.org/2000/svg">
<path d="M18.9962 18.9962L18.9963 18.9962C19.2013 18.7911 19.2013 18.4588 18.9962 18.2538L13.6191 12.8766C14.7243 11.6011 15.4 9.94254 15.4 8.12498C15.4 4.11346 12.1366 0.85 8.12501 0.85C4.11346 0.85 0.85 4.11346 0.85 8.12501C0.85 12.1366 4.11346 15.4 8.12501 15.4C9.94258 15.4 11.6011 14.7243 12.8767 13.619L18.2538 18.9962C18.3563 19.0987 18.4909 19.15 18.625 19.15C18.7592 19.15 18.8937 19.0987 18.9962 18.9962ZM8.12501 14.35C4.69296 14.35 1.90002 11.5574 1.90002 8.12501C1.90002 4.69262 4.69296 1.89999 8.12501 1.89999C11.5571 1.89999 14.35 4.69259 14.35 8.12501C14.35 11.5574 11.5571 14.35 8.12501 14.35Z" fill="#293895" stroke="#293895" stroke-width="0.3"/>
</svg>
