<svg width="13" height="16" viewBox="0 0 13 16" fill="none" xmlns="http://www.w3.org/2000/svg">
<path d="M1.23136 4.60829C1.00244 3.10055 2.06553 1.74622 3.68953 1.25003C3.97772 1.16191 4.28867 1.187 4.55901 1.32016C4.82935 1.45333 5.03875 1.68456 5.14454 1.96675L5.6659 3.35703C5.74983 3.58069 5.765 3.82433 5.70948 4.05668C5.65395 4.28903 5.53026 4.49948 5.35428 4.66103L3.80339 6.08128C3.72694 6.15143 3.66998 6.2402 3.63805 6.33892C3.60613 6.43764 3.60032 6.54295 3.62121 6.64459L3.6356 6.70691L3.67275 6.86272C3.86563 7.61976 4.1595 8.3474 4.54648 9.02605C4.96801 9.7472 5.49113 10.4039 6.09976 10.9761L6.1477 11.0192C6.22513 11.0879 6.31904 11.1354 6.42028 11.1571C6.52152 11.1787 6.62664 11.1737 6.72539 11.1426L8.73052 10.511C8.9584 10.4395 9.20246 10.4376 9.43138 10.5058C9.66031 10.5739 9.86366 10.7089 10.0153 10.8934L10.9646 12.0451C11.3601 12.5245 11.3121 13.2293 10.8579 13.6524C9.61504 14.8113 7.90594 15.0486 6.717 14.0934C5.25963 12.9178 4.03105 11.4841 3.09267 9.86382C2.14666 8.24478 1.51476 6.46173 1.23016 4.60829H1.23136ZM4.87847 6.72369L6.16328 5.54434C6.51545 5.22138 6.76306 4.80054 6.87433 4.33584C6.98559 3.87114 6.95543 3.38379 6.78772 2.93635L6.26756 1.54606C6.05463 0.978259 5.63322 0.513008 5.08919 0.245112C4.54515 -0.0227843 3.91945 -0.073164 3.33956 0.104238C1.32244 0.721479 -0.296762 2.53005 0.0460162 4.78927C0.285721 6.36653 0.838241 8.37286 2.05714 10.4679C3.06955 12.215 4.39481 13.7608 5.96673 15.0283C7.75013 16.4605 10.1304 15.9715 11.6765 14.5309C12.5946 13.6751 12.6881 12.2537 11.891 11.2853L10.9418 10.1323C10.6381 9.76372 10.2313 9.49426 9.77348 9.35844C9.31565 9.22263 8.82769 9.22667 8.37216 9.37003L6.70741 9.89379C6.27759 9.45061 5.90109 8.95867 5.5856 8.42799C5.28084 7.89148 5.04334 7.31947 4.87847 6.72489V6.72369Z" fill="#62D33E"/>
</svg>
