<svg width="26" height="26" viewBox="0 0 26 26" fill="none" xmlns="http://www.w3.org/2000/svg">
<path d="M13 26C20.1797 26 26 20.1797 26 13C26 5.8203 20.1797 0 13 0C5.8203 0 0 5.8203 0 13C0 20.1797 5.8203 26 13 26Z" fill="#039BE5"/>
<path d="M5.94814 12.7183L18.4823 7.88556C19.064 7.6754 19.5721 8.02748 19.3836 8.90715L19.3847 8.90606L17.2505 18.9605C17.0924 19.6733 16.6688 19.8466 16.0762 19.5108L12.8262 17.1156L11.2586 18.6257C11.0853 18.7991 10.9391 18.9453 10.6032 18.9453L10.834 15.6379L16.8573 10.1963C17.1195 9.96556 16.7988 9.83556 16.4532 10.0652L9.00963 14.7517L5.8008 13.7507C5.10422 13.5297 5.08905 13.0541 5.94814 12.7183Z" fill="white"/>
</svg>
